<svg xmlns="http://www.w3.org/2000/svg" width="68.889" height="74.354" viewBox="0 0 68.889 74.354">
  <g id="Group_1150" data-name="Group 1150" transform="translate(-482 -1125)">
    <g id="Group_1149" data-name="Group 1149" transform="translate(482 1125)">
      <path id="Path_39303" data-name="Path 39303" d="M294.481,308.847a21.24,21.24,0,1,1-21.255-21.2A21.338,21.338,0,0,1,294.481,308.847Zm-22.6-9.256c-2.1,0-4.143-.014-6.181.023a.822.822,0,0,0-.572.5,20.429,20.429,0,0,0-.624,2.654c-.235,1.565-.391,3.141-.583,4.742h7.96Zm-6.8,18.544h6.792v-7.859h-8.046Zm17.641-10.608c-.466-2.58-.9-5.041-1.38-7.493-.036-.182-.409-.417-.632-.424-1.241-.041-2.484-.02-3.727-.02h-2.344v7.937Zm-8.089,2.731v7.917c2.1,0,4.138.009,6.177-.016a.684.684,0,0,0,.521-.364,31.337,31.337,0,0,0,1.16-7.536Zm17.026-2.741a16.551,16.551,0,0,0-2.186-7.625.676.676,0,0,0-.438-.287c-1.648-.02-3.3-.013-4.861-.013l1.128,7.925Zm-7.487,10.657c1.56,0,3.19.01,4.818-.015a.7.7,0,0,0,.5-.323,17.628,17.628,0,0,0,2.247-7.586H285.3Zm-22.988-10.647,1.137-7.938H259.66c-2.7,0-2.7,0-3.712,2.565a16.337,16.337,0,0,0-1.186,5.373Zm1.133,10.647-1.125-7.917h-6.434a17.423,17.423,0,0,0,2.215,7.505.869.869,0,0,0,.615.393C259.178,318.19,260.776,318.175,262.311,318.175Zm9.566-27.516c-1.671.024-4.674,3.243-5.535,6.226h5.535Zm.013,30.241h-5.679c1.292,2.671,2.652,5.167,5.679,6.335Zm8.4-24.006c-1.314-2.7-2.669-5.2-5.676-6.355v6.355Zm-.03,23.995h-5.641v6.367C277.59,326.024,279,323.594,280.259,320.889Zm.415-29.016c.795,1.59,1.584,3.185,2.4,4.768a.6.6,0,0,0,.435.279c1.254.022,2.509.013,3.939.013A18.454,18.454,0,0,0,280.674,291.873Zm6.77,28.959c-1.429,0-2.642-.012-3.854.013a.689.689,0,0,0-.516.28c-.818,1.581-1.605,3.177-2.4,4.769A18.5,18.5,0,0,0,287.444,320.832Zm-28.416,0a18.571,18.571,0,0,0,6.785,5.058c-.787-1.558-1.559-3.107-2.359-4.643a.776.776,0,0,0-.516-.4C261.705,320.815,260.471,320.832,259.028,320.832Zm6.783-28.961a18.378,18.378,0,0,0-6.765,5.063c1.408,0,2.618.02,3.827-.019a.849.849,0,0,0,.583-.416C264.25,294.991,265.007,293.464,265.812,291.871Z" transform="translate(-238.821 -287.643)" fill="#3d260f"/>
      <path id="Path_39304" data-name="Path 39304" d="M257.544,380.2a4.1,4.1,0,0,0-2.084,2.4,13.194,13.194,0,0,0-.776,5.13c0,1.189.025,2.378.045,3.567.073,4.155-1.292,7.977-2.735,11.778a2.032,2.032,0,0,1-.476.668q-3.159,3.177-6.335,6.336a1.312,1.312,0,0,1-2.226-.167,1.351,1.351,0,0,1,.4-1.773c1.878-1.877,3.768-3.741,5.617-5.646a4.16,4.16,0,0,0,.972-1.492c.681-2.027,1.275-4.084,1.928-6.217a4.6,4.6,0,0,0-4.314,1.992q-1.652,2.484-3.4,4.9a5.027,5.027,0,0,1-1.135,1.068c-2.833,2.067-5.783,3.989-8.484,6.214a32.44,32.44,0,0,0-4.173,4.687,3.916,3.916,0,0,0-.859,3.037c.34,2.6.778,5.186,1.033,7.792.2,2.055.226,4.131.251,6.2.009.737-.545,1.121-1.271,1.159a1.262,1.262,0,0,1-1.343-1.192.782.782,0,0,1-.006-.165c.323-3.494-.538-6.864-1.072-10.269a10.427,10.427,0,0,0-.281-1.583,3.7,3.7,0,0,0-.122.452,35.046,35.046,0,0,1-.514,3.522,30.314,30.314,0,0,0-.7,7.652,1.9,1.9,0,0,1-.583,1.344c-.866.685-2.008-.017-2.04-1.192a32.125,32.125,0,0,1,.686-8.233,47.393,47.393,0,0,0,.627-5.093,5.487,5.487,0,0,0-1.221-4.017,28.155,28.155,0,0,0-6.1-6.055c-1.584-1.157-3.191-2.293-4.864-3.314a12.034,12.034,0,0,1-3.883-3.886c-.568-.883-1.139-1.765-1.723-2.638-1.226-1.834-2.056-2.289-4.388-2.395a4.2,4.2,0,0,0,.059.537c.206.859.438,1.712.635,2.573a10.806,10.806,0,0,0,3.663,6.29,50.292,50.292,0,0,1,3.816,3.8,4.735,4.735,0,0,1,.446.49,1.242,1.242,0,0,1-.161,1.781,1.174,1.174,0,0,1-1.721.03q-3.428-3.376-6.8-6.81a2.268,2.268,0,0,1-.476-.955c-.83-2.917-1.771-5.812-2.4-8.772a28.721,28.721,0,0,1-.081-4.714,40.058,40.058,0,0,0-.4-5.189,9.025,9.025,0,0,0-1.266-2.746c-.212-.371-.672-.6-1.146-1-.241,2.11-.46,4.024-.677,5.938a22.874,22.874,0,0,0-.314,3.049c.054,2.367.187,4.734.363,7.1.2,2.729.522,5.449.71,8.178a2.718,2.718,0,0,0,.813,1.908c1.595,1.533,3.183,3.072,4.79,4.592a52.224,52.224,0,0,1,6.778,7.267,10.781,10.781,0,0,1,2.3,7.18c-.108,1.652-.013,3.318-.023,4.977-.006,1-.487,1.557-1.319,1.562s-1.326-.551-1.331-1.547c-.009-1.88-.048-3.763.012-5.641a6.956,6.956,0,0,0-1.1-3.926,32.1,32.1,0,0,0-5.4-6.268c-1.592-1.536-3.231-3.023-4.832-4.55-.68-.648-1.33-1.329-1.97-2.017a5.187,5.187,0,0,1-1.38-3.35c-.31-4.327-.829-8.64-1.145-12.967a25.967,25.967,0,0,1,.252-4.451c.28-2.777.622-5.548.938-8.321.126-1.1.589-1.5,1.71-1.431a5.634,5.634,0,0,1,4.961,3.475,17.943,17.943,0,0,1,1.4,8.665c-.027.823,0,1.647,0,2.5.715.1,1.45.2,2.182.317a6.15,6.15,0,0,1,4.214,2.682c1.1,1.589,2.184,3.193,3.3,4.768a4.066,4.066,0,0,0,.948.9c2.582,1.851,5.242,3.6,7.746,5.549a22.365,22.365,0,0,1,5.347,5.854c.557.9.959,1.9,1.43,2.848,1.353-4.022,4.36-6.828,7.557-9.418,2.013-1.631,4.272-2.954,6.372-4.482a9.906,9.906,0,0,0,1.986-1.947c.858-1.114,1.612-2.311,2.364-3.5a6.938,6.938,0,0,1,5.737-3.422c.358-.022.713-.088,1.093-.136,0-.8.031-1.591-.006-2.379a19.579,19.579,0,0,1,.967-7.844,5.873,5.873,0,0,1,5.666-4.434,1.275,1.275,0,0,1,1.409,1.218c.451,3.926,1.018,7.846,1.266,11.786a41.806,41.806,0,0,1-.508,6.187c-.252,2.863-.458,5.732-.771,8.588a4.316,4.316,0,0,1-.777,2.035,26.407,26.407,0,0,1-2.516,2.746c-2.833,2.833-5.708,5.626-8.519,8.481a14.248,14.248,0,0,0-1.65,2.278,6.721,6.721,0,0,0-1.133,4c.062,1.851.02,3.705.013,5.558,0,1.049-.5,1.624-1.361,1.6-.826-.023-1.286-.576-1.289-1.591-.007-2.129-.02-4.259,0-6.388a9.964,9.964,0,0,1,2.154-5.555,46.111,46.111,0,0,1,6.5-7.072q2.529-2.4,5.044-4.806a3.15,3.15,0,0,0,.97-2.183c.348-4.353.833-8.695,1.176-13.048a19.269,19.269,0,0,0-.252-3.46C258.118,385.267,257.832,382.8,257.544,380.2Z" transform="translate(-192.427 -357.515)" fill="#3d260f"/>
    </g>
  </g>
</svg>
